<svg width="628" height="86" viewBox="0 0 628 86" fill="none" xmlns="http://www.w3.org/2000/svg">
<path d="M0.963623 19.9636H8.32726V26.6727C11.4364 21.2727 17.3273 19.9636 21.9091 19.9636H26.1636V27.4909H22.5636C16.3454 27.4909 8.81817 29.9454 8.81817 35.6727V66.4364H0.963623V19.9636Z" fill="white"/>
<path d="M37.2911 44.509C37.9456 54.9817 43.5093 60.5453 51.5274 60.5453C58.8911 60.5453 62.8183 56.4544 63.9638 52.1999L71.3274 53.509C69.0365 62.3453 62.0002 67.4181 51.2002 67.4181C37.782 67.4181 29.4365 58.2544 29.4365 43.1999C29.4365 27.6544 38.9274 18.9817 51.3638 18.9817C63.8002 18.9817 71.6547 27.1635 71.6547 41.3999V44.6726L37.2911 44.509ZM37.4547 38.1271H63.8002C63.4729 30.9271 59.5456 25.6908 51.3638 25.6908C44.0002 25.6908 38.9274 30.5999 37.4547 38.1271Z" fill="white"/>
<path d="M115.182 60.5455C112.237 65.1273 107 67.4182 100.127 67.4182C87.3638 67.4182 78.3638 58.5818 78.3638 43.0364C78.3638 27.8182 87.691 18.8182 100.946 18.8182C106.673 18.8182 111.746 20.9455 115.018 24.7091V0H122.873V66.4364H115.346L115.182 60.5455ZM114.855 40.9091C114.855 30.9273 108.637 26.0182 100.618 26.0182C91.782 26.0182 86.0547 32.5636 86.0547 43.2C86.0547 53.1818 91.291 60.5455 100.455 60.5455C109.782 60.5455 114.691 53.8364 114.691 45.1636L114.855 40.9091Z" fill="white"/>
<path d="M128.109 85.4182V77.7273H173.273V85.4182H128.109Z" fill="white"/>
<path d="M178.509 19.9635H186.037V26.0181C189.146 21.4362 194.873 18.9817 200.437 18.9817C208.291 18.9817 213.691 22.4181 215.982 27.4908C218.927 21.9271 225.637 18.9817 231.855 18.9817C242.327 18.9817 249.037 24.709 249.037 35.6726V66.4362H241.182V36.8181C241.182 30.4362 238.073 26.0181 230.382 26.0181C223.182 26.0181 217.618 30.9271 217.618 38.6181V66.4362H209.764V36.8181C209.764 30.4362 206.491 26.0181 198.8 26.0181C191.6 26.0181 186.2 30.9271 186.2 38.6181V66.4362H178.346L178.509 19.9635Z" fill="white"/>
<path d="M288.473 61.0362C285.527 64.7999 280.455 67.5817 273.746 67.5817C263.6 67.5817 257.218 62.3453 257.218 53.6726C257.218 44.0181 264.091 40.0908 274.891 39.7635C279.636 39.5999 283.727 39.7635 287.982 39.9271V35.8362C287.982 28.9635 283.727 26.0181 277.673 26.0181C270.964 26.0181 267.855 29.7817 266.382 34.3635L259.018 32.7271C260.982 24.5453 267.364 18.9817 277.836 18.9817C288.473 18.9817 296 23.8908 296 35.3453V66.4362H288.636L288.473 61.0362ZM275.218 45.8181C268.509 46.1453 265.073 48.7635 265.073 53.509C265.073 58.0908 268.509 60.8726 273.909 60.8726C281.764 60.8726 287.818 56.6181 287.818 50.3999V45.8181C284.055 45.6544 279.636 45.6544 275.218 45.8181Z" fill="white"/>
<path d="M342.146 60.5455C339.2 65.1273 333.964 67.4182 327.091 67.4182C314.327 67.4182 305.327 58.5818 305.327 43.0364C305.327 27.8182 314.655 18.8182 327.909 18.8182C333.637 18.8182 338.709 20.9455 341.818 24.7091V0H349.673V66.4364H342.146V60.5455ZM341.818 40.9091C341.818 30.9273 335.6 26.0182 327.582 26.0182C318.746 26.0182 313.018 32.5636 313.018 43.2C313.018 53.1818 318.255 60.5455 327.582 60.5455C336.909 60.5455 341.818 53.8364 341.818 45.1636V40.9091Z" fill="white"/>
<path d="M355.073 85.4182V77.7273H400.073V85.4182H355.073Z" fill="white"/>
<path d="M405.473 19.4727H413.327V27.3272H421.182V35.1818H413.327V66.4363H405.473V19.4727ZM421.182 19.4727H432.964V27.3272H421.182V19.4727Z" fill="white"/>
<path d="M438.854 27.3272H446.709V58.5818H438.854V27.3272ZM474.036 27.3272H446.709V19.4727H474.036V27.3272ZM446.709 58.5818H474.036V66.4363H446.709V58.5818ZM474.036 58.5818V27.3272H481.891V58.5818H474.036Z" fill="white"/>
<path d="M493.182 0H501.036V27.3273H508.891V35.1818H501.036V50.8909H508.891V58.7455H501.036V66.6H493.182V0ZM508.891 19.4727H528.527V27.3273H508.891V19.4727ZM508.891 58.5818H528.527V66.4364H508.891V58.5818ZM528.364 58.5818V27.3273H536.218V58.5818H528.364Z" fill="white"/>
<path d="M546.2 27.3272H554.055V58.5818H546.2V27.3272ZM581.382 27.3272H554.055V19.4727H581.382V27.3272ZM554.055 58.5818H581.382V66.4363H554.055V58.5818ZM581.382 58.5818V27.3272H589.236V58.5818H581.382Z" fill="white"/>
<path d="M603.637 27.3273H595.782V19.4727H603.637V7.69092H611.491V19.4727H627.2V27.3273H611.491V58.5818H603.637V27.3273ZM611.327 58.5818H627.036V66.4364H611.327V58.5818Z" fill="white"/>
</svg>
